<?xml version="1.0" encoding="UTF-8"?>
<svg version="1.1" xmlns="http://www.w3.org/2000/svg" width="201" height="215">
<path d="M0 0 C66.33 0 132.66 0 201 0 C201 70.95 201 141.9 201 215 C134.67 215 68.34 215 0 215 C0 144.05 0 73.1 0 0 Z " fill="#73A9E3" transform="translate(0,0)"/>
<path d="M0 0 C66.33 0 132.66 0 201 0 C201 70.95 201 141.9 201 215 C134.67 215 68.34 215 0 215 C0 144.05 0 73.1 0 0 Z M22 40 C20.50359304 42.99281392 20.84397186 46.06591321 20.83886719 49.34863281 C20.83390228 50.10672241 20.82893738 50.86481201 20.82382202 51.64587402 C20.80917059 54.16496687 20.80238861 56.68399646 20.796875 59.203125 C20.79111993 60.9603475 20.78536224 62.71757 20.77960205 64.47479248 C20.76907948 68.17037244 20.76324704 71.8659306 20.75976562 75.56152344 C20.75432 80.26170163 20.73038273 84.96158435 20.70179367 89.66167068 C20.68300858 93.29946682 20.67795303 96.93719459 20.67642975 100.5750351 C20.67343134 102.30511821 20.66549978 104.03520096 20.65224457 105.7652359 C20.55700346 119.16791976 21.19828054 132.16097909 27.6875 144.25 C28.03635254 144.9198291 28.38520508 145.5896582 28.74462891 146.27978516 C31.86273301 152.08615145 35.52945204 157.14862759 40 162 C41.10601562 163.22589844 41.10601562 163.22589844 42.234375 164.4765625 C53.04130666 175.88387926 66.22777145 183.69605471 80 191 C80.71607422 191.38526855 81.43214844 191.77053711 82.16992188 192.16748047 C84.31356116 193.3153123 86.46671813 194.44248061 88.625 195.5625 C89.27581543 195.90941895 89.92663086 196.25633789 90.59716797 196.61376953 C94.60347392 198.64450554 97.53116051 199.62852065 102 199 C104.72312752 197.97272955 107.21680393 196.90688472 109.8125 195.625 C110.91585693 195.09132812 110.91585693 195.09132812 112.04150391 194.546875 C138.0692867 181.71822489 162.98586404 164.90176339 174.33879089 137.09216309 C177.77822933 126.20927286 177.34148862 114.43609379 177.37109375 103.15234375 C177.38008002 101.36446567 177.38920216 99.57658828 177.39845276 97.78871155 C177.41481925 94.0698159 177.42262238 90.3510091 177.42553711 86.63208008 C177.43096442 81.86710887 177.46887379 77.1029679 177.51428127 72.33823299 C177.54397732 68.65880737 177.55125874 64.97958581 177.55226326 61.30005074 C177.5564663 59.54214156 177.56890406 57.78423181 177.58978081 56.02644157 C177.61659287 53.57810656 177.6119063 51.13175565 177.59936523 48.68334961 C177.62161667 47.59944191 177.62161667 47.59944191 177.64431763 46.49363708 C177.58924946 42.72457741 177.29133467 41.29222191 174.58499146 38.57763672 C172.39701215 37.24229904 170.55160604 36.23460624 168.12109375 35.47265625 C167.38157471 35.2401416 166.64205566 35.00762695 165.88012695 34.76806641 C161.27097542 33.4366873 156.64965614 32.1825145 152 31 C151.04834961 30.75008301 150.09669922 30.50016602 149.11621094 30.24267578 C114.02300595 21.41393964 53.25484124 18.09793322 22 40 Z " fill="#111928" transform="translate(0,0)"/>
<path d="M0 0 C0.75601501 -0.00570007 1.51203003 -0.01140015 2.29095459 -0.01727295 C3.89138392 -0.02671465 5.49183262 -0.03325364 7.09228516 -0.03710938 C9.524115 -0.04678445 11.95508828 -0.07780179 14.38671875 -0.109375 C15.94530751 -0.1159087 17.50390228 -0.12115773 19.0625 -0.125 C19.78254211 -0.1373468 20.50258423 -0.1496936 21.2444458 -0.16241455 C30.37349536 -0.12273808 37.38091062 4.32966898 43.921875 10.453125 C51.21582342 17.95685512 52.55938736 25.94706197 52.54345703 36.06054688 C52.38869818 45.41391726 49.85024664 52.43652001 43.296875 59.203125 C38.25414385 63.42836421 33.91052903 65.92169291 27.296875 66.203125 C27.296875 66.863125 27.296875 67.523125 27.296875 68.203125 C27.956875 68.203125 28.616875 68.203125 29.296875 68.203125 C30.70703125 69.6015625 30.70703125 69.6015625 32.359375 71.578125 C36.00306604 75.87522055 39.77227413 80.04183357 43.57421875 84.19921875 C45.296875 86.203125 45.296875 86.203125 45.296875 87.203125 C24.72248962 89.74287109 24.72248962 89.74287109 17.67285156 85.69726562 C11.88668545 80.88893953 3.88451402 72.89248175 3.06982422 65.00488281 C3.08029785 64.22983398 3.09077148 63.45478516 3.1015625 62.65625 C3.10800781 61.81191406 3.11445312 60.96757813 3.12109375 60.09765625 C3.13785156 59.22496094 3.15460938 58.35226563 3.171875 57.453125 C3.18089844 56.56496094 3.18992188 55.67679688 3.19921875 54.76171875 C3.22272923 52.57524442 3.25559001 50.38932406 3.296875 48.203125 C3.87655029 48.1937793 4.45622559 48.18443359 5.0534668 48.17480469 C7.69794446 48.1208843 10.34069393 48.03728371 12.984375 47.953125 C13.89638672 47.93894531 14.80839844 47.92476562 15.74804688 47.91015625 C20.02686206 47.75456297 22.65469022 47.59055207 26.37890625 45.34375 C29.56486929 41.78792974 29.53461285 38.44224506 29.671875 33.828125 C29.72085938 32.70664063 29.76984375 31.58515625 29.8203125 30.4296875 C29.12287892 26.13058198 27.67419616 24.89521713 24.296875 22.203125 C20.82599609 21.51818067 20.82599609 21.51818067 17.02734375 21.71484375 C16.34634109 21.72191849 15.66533844 21.72899323 14.96369934 21.73628235 C12.80277505 21.76412431 10.64450678 21.82682973 8.484375 21.890625 C7.01370948 21.91572168 5.54300307 21.93853247 4.07226562 21.95898438 C0.47961543 22.01391312 -3.11149528 22.10010853 -6.703125 22.203125 C-8.47137179 26.02854509 -8.96890396 29.077293 -9.02197266 33.27856445 C-9.04184235 34.47943192 -9.06171204 35.68029938 -9.08218384 36.91755676 C-9.09373505 38.20417709 -9.10528625 39.49079742 -9.1171875 40.81640625 C-9.13591098 42.15448689 -9.15548527 43.49255587 -9.1758728 44.83061218 C-9.2270757 48.34039416 -9.26676436 51.85021438 -9.30401611 55.36016846 C-9.34413039 58.94658778 -9.39518874 62.5328497 -9.4453125 66.11914062 C-9.54193127 73.14701999 -9.62638067 80.17499822 -9.703125 87.203125 C-18.061175 84.56655439 -24.29316454 79.04668972 -28.73144531 71.44091797 C-32.62903556 63.33574309 -32.30986996 55.0779341 -32.22460938 46.28051758 C-32.20313993 43.64245991 -32.22449573 41.0071162 -32.25 38.36914062 C-32.27805967 22.00367523 -32.27805967 22.00367523 -27.703125 15.203125 C-27.18492188 14.40519531 -26.66671875 13.60726562 -26.1328125 12.78515625 C-18.90407054 4.55746753 -10.96931059 0.0640238 0 0 Z " fill="#101929" transform="translate(88.703125,56.796875)"/>
<path d="M0 0 C5.63281599 -0.2396943 10.54538831 0.61470179 16 2 C16 2.33 16 2.66 16 3 C7.42857143 3.14285714 7.42857143 3.14285714 4 2 C4 2.66 4 3.32 4 4 C2.68 4 1.36 4 0 4 C0 2.68 0 1.36 0 0 Z " fill="#85B9EA" transform="translate(129,28)"/>
<path d="M0 0 C2.88437779 1.29299694 4.87219421 2.65941363 7 5 C6.67 5.99 6.34 6.98 6 8 C4.9970458 6.85675161 3.99770973 5.71032809 3 4.5625 C2.443125 3.92441406 1.88625 3.28632813 1.3125 2.62890625 C0 1 0 1 0 0 Z " fill="#7CA8D1" transform="translate(128,136)"/>
</svg>
